<?xml version="1.0" encoding="UTF-8" standalone="no"?>
<!-- Created with Inkscape (http://www.inkscape.org/) -->

<svg
   version="1.1"
   id="svg824"
   xml:space="preserve"
   width="424"
   height="624"
   viewBox="0 0 424 624"
   sodipodi:docname="ProSet.svg"
   inkscape:version="1.1 (c68e22c387, 2021-05-23)"
   xmlns:inkscape="http://www.inkscape.org/namespaces/inkscape"
   xmlns:sodipodi="http://sodipodi.sourceforge.net/DTD/sodipodi-0.dtd"
   xmlns="http://www.w3.org/2000/svg"
   xmlns:svg="http://www.w3.org/2000/svg"><defs
     id="defs828"><clipPath
       clipPathUnits="userSpaceOnUse"
       id="clipPath838"><path
         d="M 120.83334,120.83334 H 2433.3335 V 3183.3335 H 120.83334 Z"
         clip-rule="evenodd"
         id="path836" /></clipPath></defs><sodipodi:namedview
     id="namedview826"
     pagecolor="#ffffff"
     bordercolor="#666666"
     borderopacity="1.0"
     inkscape:pageshadow="2"
     inkscape:pageopacity="0.0"
     inkscape:pagecheckerboard="0"
     showgrid="false"
     scale-x="1"
     inkscape:zoom="0.66856061"
     inkscape:cx="192.95184"
     inkscape:cy="393.38244"
     inkscape:window-width="1920"
     inkscape:window-height="986"
     inkscape:window-x="1909"
     inkscape:window-y="-11"
     inkscape:window-maximized="1"
     inkscape:current-layer="g830"
     fit-margin-top="0"
     fit-margin-left="0"
     fit-margin-right="0"
     fit-margin-bottom="0" /><g
     id="g830"
     inkscape:groupmode="layer"
     inkscape:label="ProSet"
     transform="matrix(0.31999998,0,0,0.31999998,-352.66244,-436.16666)"><path
       d="M 1127.0702,3175.5211 V 1500.521 c 0,-7.387 0.72,-14.7028 2.1616,-21.9479 1.441,-7.245 3.5747,-14.2798 6.4016,-21.1043 2.8269,-6.8246 6.2921,-13.3078 10.3961,-19.45 4.1042,-6.1418 8.7678,-11.8243 13.991,-17.0476 5.2233,-5.2234 10.9059,-9.887 17.0478,-13.9909 6.1419,-4.1037 12.6251,-7.5691 19.4497,-10.396 6.8245,-2.8266 13.8594,-4.9606 21.1045,-6.4017 7.2449,-1.441 14.5607,-2.1617 21.9477,-2.1617 h 1050 c 7.3868,0 14.7027,0.7201 21.9477,2.1617 7.2447,1.441 14.2793,3.5749 21.1038,6.4016 6.8245,2.8269 13.3078,6.2921 19.4497,10.3961 6.1421,4.1039 11.8248,8.7675 17.0482,13.9909 5.2233,5.2233 9.8868,10.9058 13.9909,17.0476 4.1036,6.1422 7.5689,12.6254 10.3958,19.45 2.8268,6.8245 4.961,13.8593 6.4022,21.1043 1.4411,7.2451 2.1618,14.5609 2.1618,21.9479 v 1675.0001 c 0,7.3867 -0.72,14.7026 -2.1618,21.9475 -1.4412,7.2445 -3.5751,14.2791 -6.402,21.104 -2.8269,6.8245 -6.2922,13.3076 -10.396,19.4496 -4.1041,6.1421 -8.7676,11.8244 -13.9909,17.0479 -5.2234,5.2235 -10.9061,9.887 -17.048,13.9908 -6.1421,4.1038 -12.6254,7.5691 -19.4499,10.3962 -6.8245,2.8268 -13.8591,4.9606 -21.1038,6.4023 -7.245,1.4411 -14.5609,2.1617 -21.9477,2.1617 h -1050 c -7.387,0 -14.7028,-0.7212 -21.9477,-2.1617 -7.2451,-1.4417 -14.28,-3.5755 -21.1045,-6.4023 -6.8246,-2.8271 -13.3078,-6.2924 -19.4497,-10.3962 -6.1419,-4.1038 -11.8245,-8.7673 -17.0478,-13.9908 -5.2232,-5.2235 -9.8868,-10.9058 -13.991,-17.0479 -4.104,-6.142 -7.5692,-12.6251 -10.3961,-19.4496 -2.8269,-6.8249 -4.9606,-13.8595 -6.4016,-21.104 -1.441,-7.2449 -2.1616,-14.5608 -2.1616,-21.9475 z"
       style="fill:#ffffff;fill-opacity:1;fill-rule:nonzero;stroke:none;stroke-width:12.5"
       id="path846" /><path
       d="M 1127.0702,3175.5211 V 1500.521 c 0,-7.387 0.72,-14.7028 2.1616,-21.9479 1.441,-7.245 3.5747,-14.2798 6.4016,-21.1043 2.8269,-6.8246 6.2921,-13.3078 10.3961,-19.45 4.1042,-6.1418 8.7678,-11.8243 13.991,-17.0476 5.2233,-5.2234 10.9059,-9.887 17.0478,-13.9909 6.1419,-4.1037 12.6251,-7.5691 19.4497,-10.396 6.8245,-2.8266 13.8594,-4.9606 21.1045,-6.4017 7.2449,-1.441 14.5607,-2.1617 21.9477,-2.1617 h 1050 c 7.3868,0 14.7027,0.7201 21.9477,2.1617 7.2447,1.441 14.2793,3.5749 21.1038,6.4016 6.8245,2.8269 13.3078,6.2921 19.4497,10.3961 6.1421,4.1039 11.8248,8.7675 17.0482,13.9909 5.2233,5.2233 9.8868,10.9058 13.9909,17.0476 4.1036,6.1422 7.5689,12.6254 10.3958,19.45 2.8268,6.8245 4.961,13.8593 6.4022,21.1043 1.4411,7.2451 2.1618,14.5609 2.1618,21.9479 v 1675.0001 c 0,7.3867 -0.72,14.7026 -2.1618,21.9475 -1.4412,7.2445 -3.5751,14.2791 -6.402,21.104 -2.8269,6.8245 -6.2922,13.3076 -10.396,19.4496 -4.1041,6.1421 -8.7676,11.8244 -13.9909,17.0479 -5.2234,5.2235 -10.9061,9.887 -17.048,13.9908 -6.1421,4.1038 -12.6254,7.5691 -19.4499,10.3962 -6.8245,2.8268 -13.8591,4.9606 -21.1038,6.4023 -7.245,1.4411 -14.5609,2.1617 -21.9477,2.1617 h -1050 c -7.387,0 -14.7028,-0.7212 -21.9477,-2.1617 -7.2451,-1.4417 -14.28,-3.5755 -21.1045,-6.4023 -6.8246,-2.8271 -13.3078,-6.2924 -19.4497,-10.3962 -6.1419,-4.1038 -11.8245,-8.7673 -17.0478,-13.9908 -5.2232,-5.2235 -9.8868,-10.9058 -13.991,-17.0479 -4.104,-6.142 -7.5692,-12.6251 -10.3961,-19.4496 -2.8269,-6.8249 -4.9606,-13.8595 -6.4016,-21.104 -1.441,-7.2449 -2.1616,-14.5608 -2.1616,-21.9475 z"
       style="fill:#ffffff;fill-opacity:1;stroke:#000000;stroke-width:50;stroke-linecap:butt;stroke-linejoin:miter;stroke-miterlimit:10;stroke-dasharray:none;stroke-opacity:1"
       id="path848" /><path
       d="m 1620.8202,1719.271 c 0,10.6697 -1.0413,21.237 -3.1225,31.7019 -2.0819,10.465 -5.1644,20.6262 -9.2474,30.484 -4.0832,9.8577 -9.0887,19.2223 -15.0164,28.0941 -5.9281,8.8716 -12.6645,17.0797 -20.2091,24.6246 -7.5447,7.5446 -15.753,14.281 -24.6249,20.2089 -8.8716,5.9279 -18.2363,10.9334 -28.0941,15.0166 -9.8577,4.083 -20.0189,7.1655 -30.4836,9.2471 -10.4649,2.0818 -21.0321,3.1225 -31.702,3.1228 -10.6699,-3e-4 -21.2373,-1.0413 -31.7023,-3.1228 -10.465,-2.0816 -20.6262,-5.1641 -30.484,-9.2471 -9.8577,-4.0832 -19.2224,-9.0887 -28.0941,-15.0166 -8.8716,-5.9279 -17.0799,-12.6643 -24.6246,-20.2089 -7.5449,-7.5449 -14.2813,-15.753 -20.2092,-24.6246 -5.9278,-8.8719 -10.9335,-18.2366 -15.0165,-28.0944 -4.0831,-9.8577 -7.1655,-20.0189 -9.247,-30.4837 -2.0815,-10.4649 -3.1223,-21.0322 -3.1223,-31.7019 0,-10.6699 1.0412,-21.2374 3.1223,-31.7024 2.0815,-10.4649 5.1639,-20.6261 9.247,-30.4839 4.083,-9.8577 9.0887,-19.2222 15.0165,-28.0939 5.9279,-8.8718 12.6643,-17.0801 20.2092,-24.6248 7.5447,-7.5449 15.7527,-14.2813 24.6245,-20.2092 8.8718,-5.9278 18.2365,-10.9332 28.0942,-15.0165 9.8578,-4.0831 20.019,-7.1655 30.484,-9.247 10.465,-2.0815 21.0324,-3.1223 31.7023,-3.1223 10.6699,0 21.2371,1.0412 31.702,3.1223 10.4647,2.0815 20.6259,5.1639 30.4836,9.247 9.8578,4.0833 19.2225,9.0887 28.0941,15.0165 8.8719,5.9279 17.0802,12.6643 24.6249,20.2092 7.5446,7.5447 14.281,15.753 20.2091,24.6246 5.9277,8.8716 10.9332,18.2364 15.0164,28.0941 4.083,9.8578 7.1655,20.019 9.2474,30.4839 2.0816,10.465 3.1225,21.0325 3.1225,31.7024 z"
       style="fill:#ff0000;fill-opacity:1;fill-rule:nonzero;stroke:none;stroke-width:12.5"
       id="path850" /><path
       d="m 1620.8202,1719.271 c 0,10.6697 -1.0413,21.237 -3.1225,31.7019 -2.0819,10.465 -5.1644,20.6262 -9.2474,30.484 -4.0832,9.8577 -9.0887,19.2223 -15.0164,28.0941 -5.9281,8.8716 -12.6645,17.0797 -20.2091,24.6246 -7.5447,7.5446 -15.753,14.281 -24.6249,20.2089 -8.8716,5.9279 -18.2363,10.9334 -28.0941,15.0166 -9.8577,4.083 -20.0189,7.1655 -30.4836,9.2471 -10.4649,2.0818 -21.0321,3.1225 -31.702,3.1228 -10.6699,-3e-4 -21.2373,-1.0413 -31.7023,-3.1228 -10.465,-2.0816 -20.6262,-5.1641 -30.484,-9.2471 -9.8577,-4.0832 -19.2224,-9.0887 -28.0941,-15.0166 -8.8716,-5.9279 -17.0799,-12.6643 -24.6246,-20.2089 -7.5449,-7.5449 -14.2813,-15.753 -20.2092,-24.6246 -5.9278,-8.8719 -10.9335,-18.2366 -15.0165,-28.0944 -4.0831,-9.8577 -7.1655,-20.0189 -9.247,-30.4837 -2.0815,-10.4649 -3.1223,-21.0322 -3.1223,-31.7019 0,-10.6699 1.0412,-21.2374 3.1223,-31.7024 2.0815,-10.4649 5.1639,-20.6261 9.247,-30.4839 4.083,-9.8577 9.0887,-19.2222 15.0165,-28.0939 5.9279,-8.8718 12.6643,-17.0801 20.2092,-24.6248 7.5447,-7.5449 15.7527,-14.2813 24.6245,-20.2092 8.8718,-5.9278 18.2365,-10.9332 28.0942,-15.0165 9.8578,-4.0831 20.019,-7.1655 30.484,-9.247 10.465,-2.0815 21.0324,-3.1223 31.7023,-3.1223 10.6699,0 21.2371,1.0412 31.702,3.1223 10.4647,2.0815 20.6259,5.1639 30.4836,9.247 9.8578,4.0833 19.2225,9.0887 28.0941,15.0165 8.8719,5.9279 17.0802,12.6643 24.6249,20.2092 7.5446,7.5447 14.281,15.753 20.2091,24.6246 5.9277,8.8716 10.9332,18.2364 15.0164,28.0941 4.083,9.8578 7.1655,20.019 9.2474,30.4839 2.0816,10.465 3.1225,21.0325 3.1225,31.7024 z"
       style="fill:none;stroke:#000000;stroke-width:50;stroke-linecap:butt;stroke-linejoin:miter;stroke-miterlimit:10;stroke-dasharray:none;stroke-opacity:1"
       id="path852" /><path
       d="m 2233.3202,1719.271 c 0,10.6697 -1.0412,21.237 -3.1225,31.7019 -2.0815,10.465 -5.164,20.6262 -9.2472,30.484 -4.0833,9.8577 -9.0889,19.2223 -15.0168,28.0941 -5.9278,8.8716 -12.664,17.0797 -20.2087,24.6246 -7.5449,7.5446 -15.7531,14.281 -24.6248,20.2089 -8.8717,5.9279 -18.2363,10.9334 -28.0941,15.0166 -9.8577,4.083 -20.019,7.1655 -30.4839,9.2471 -10.4648,2.0818 -21.0321,3.1225 -31.702,3.1228 -10.6699,-3e-4 -21.2374,-1.0413 -31.7022,-3.1228 -10.465,-2.0816 -20.6263,-5.1641 -30.484,-9.2471 -9.8578,-4.0832 -19.2225,-9.0887 -28.0942,-15.0166 -8.8716,-5.9279 -17.0798,-12.6643 -24.6246,-20.2089 -7.5449,-7.5449 -14.2812,-15.753 -20.2091,-24.6246 -5.9279,-8.8719 -10.9335,-18.2366 -15.0165,-28.0944 -4.0831,-9.8577 -7.1655,-20.0189 -9.247,-30.4837 -2.0818,-10.4649 -3.1226,-21.0322 -3.1224,-31.7019 -2e-4,-10.6699 1.04,-21.2374 3.1224,-31.7024 2.0815,-10.4649 5.1639,-20.6261 9.247,-30.4839 4.083,-9.8577 9.0886,-19.2222 15.0165,-28.0939 5.9279,-8.8718 12.6642,-17.0801 20.2091,-24.6248 7.5448,-7.5449 15.7529,-14.2813 24.6245,-20.2092 8.8716,-5.9278 18.2364,-10.9332 28.0941,-15.0165 9.8578,-4.0831 20.0192,-7.1655 30.484,-9.247 10.465,-2.0815 21.0325,-3.1223 31.7024,-3.1223 10.6699,0 21.2372,1.0412 31.7019,3.1223 10.465,2.0815 20.6263,5.1639 30.484,9.247 9.8578,4.0833 19.2224,9.0887 28.0941,15.0165 8.8717,5.9279 17.0799,12.6643 24.6248,20.2092 7.5447,7.5447 14.2811,15.753 20.209,24.6246 5.9279,8.8716 10.9332,18.2364 15.0165,28.0941 4.0832,9.8578 7.1657,20.019 9.2472,30.4839 2.0817,10.465 3.1225,21.0325 3.1225,31.7024 z"
       style="fill:#ffa500;fill-opacity:1;fill-rule:nonzero;stroke:none;stroke-width:12.5"
       id="path854" /><path
       d="m 2233.3202,1719.271 c 0,10.6697 -1.0412,21.237 -3.1225,31.7019 -2.0815,10.465 -5.164,20.6262 -9.2472,30.484 -4.0833,9.8577 -9.0889,19.2223 -15.0168,28.0941 -5.9278,8.8716 -12.664,17.0797 -20.2087,24.6246 -7.5449,7.5446 -15.7531,14.281 -24.6248,20.2089 -8.8717,5.9279 -18.2363,10.9334 -28.0941,15.0166 -9.8577,4.083 -20.019,7.1655 -30.4839,9.2471 -10.4648,2.0818 -21.0321,3.1225 -31.702,3.1228 -10.6699,-3e-4 -21.2374,-1.0413 -31.7022,-3.1228 -10.465,-2.0816 -20.6263,-5.1641 -30.484,-9.2471 -9.8578,-4.0832 -19.2225,-9.0887 -28.0942,-15.0166 -8.8716,-5.9279 -17.0798,-12.6643 -24.6246,-20.2089 -7.5449,-7.5449 -14.2812,-15.753 -20.2091,-24.6246 -5.9279,-8.8719 -10.9335,-18.2366 -15.0165,-28.0944 -4.0831,-9.8577 -7.1655,-20.0189 -9.247,-30.4837 -2.0818,-10.4649 -3.1226,-21.0322 -3.1224,-31.7019 -2e-4,-10.6699 1.04,-21.2374 3.1224,-31.7024 2.0815,-10.4649 5.1639,-20.6261 9.247,-30.4839 4.083,-9.8577 9.0886,-19.2222 15.0165,-28.0939 5.9279,-8.8718 12.6642,-17.0801 20.2091,-24.6248 7.5448,-7.5449 15.7529,-14.2813 24.6245,-20.2092 8.8716,-5.9278 18.2364,-10.9332 28.0941,-15.0165 9.8578,-4.0831 20.0192,-7.1655 30.484,-9.247 10.465,-2.0815 21.0325,-3.1223 31.7024,-3.1223 10.6699,0 21.2372,1.0412 31.7019,3.1223 10.465,2.0815 20.6263,5.1639 30.484,9.247 9.8578,4.0833 19.2224,9.0887 28.0941,15.0165 8.8717,5.9279 17.0799,12.6643 24.6248,20.2092 7.5447,7.5447 14.2811,15.753 20.209,24.6246 5.9279,8.8716 10.9332,18.2364 15.0165,28.0941 4.0832,9.8578 7.1657,20.019 9.2472,30.4839 2.0817,10.465 3.1225,21.0325 3.1225,31.7024 z"
       style="fill:none;stroke:#000000;stroke-width:50;stroke-linecap:butt;stroke-linejoin:miter;stroke-miterlimit:10;stroke-dasharray:none;stroke-opacity:1"
       id="path856" /><path
       d="m 1620.8202,2344.271 c 0,10.6698 -1.0413,21.2368 -3.1225,31.7017 -2.0819,10.4648 -5.1644,20.6261 -9.2474,30.484 -4.0832,9.8576 -9.0887,19.2222 -15.0164,28.0941 -5.9281,8.8719 -12.6645,17.0804 -20.2091,24.625 -7.5447,7.5447 -15.753,14.2811 -24.6249,20.2091 -8.8716,5.9281 -18.2363,10.9338 -28.0941,15.0166 -9.8577,4.0829 -20.0189,7.1655 -30.4836,9.2472 -10.4649,2.0817 -21.0321,3.1223 -31.702,3.1223 -10.6699,0 -21.2373,-1.0412 -31.7023,-3.1223 -10.465,-2.0817 -20.6262,-5.1643 -30.484,-9.2472 -9.8577,-4.0828 -19.2224,-9.0885 -28.0941,-15.0166 -8.8716,-5.928 -17.0799,-12.6644 -24.6246,-20.2091 -7.5449,-7.5446 -14.2813,-15.7531 -20.2092,-24.625 -5.9278,-8.8719 -10.9335,-18.2365 -15.0165,-28.0941 -4.0831,-9.8579 -7.1655,-20.0192 -9.247,-30.484 -2.0815,-10.4649 -3.1223,-21.0319 -3.1223,-31.7017 0,-10.6697 1.0412,-21.2371 3.1223,-31.7024 2.0815,-10.4648 5.1639,-20.6265 9.247,-30.484 4.083,-9.8576 9.0887,-19.2223 15.0165,-28.0937 5.9279,-8.8719 12.6643,-17.08 20.2092,-24.6246 7.5447,-7.5448 15.7527,-14.2812 24.6245,-20.209 8.8718,-5.9279 18.2365,-10.9335 28.0942,-15.0168 9.8578,-4.083 20.019,-7.1655 30.484,-9.2471 10.465,-2.0815 21.0324,-3.1224 31.7023,-3.1224 10.6699,0 21.2371,1.0413 31.702,3.1225 10.4647,2.0815 20.6259,5.164 30.4836,9.247 9.8578,4.0833 19.2225,9.0888 28.0941,15.0166 8.8719,5.928 17.0802,12.6644 24.6249,20.2092 7.5446,7.5446 14.281,15.7527 20.2091,24.6246 5.9277,8.8714 10.9332,18.2361 15.0164,28.0937 4.083,9.8575 7.1655,20.0192 9.2474,30.484 2.0816,10.4653 3.1225,21.0327 3.1225,31.7024 z"
       style="fill:#ffff00;fill-opacity:1;fill-rule:nonzero;stroke:none;stroke-width:12.5"
       id="path858" /><path
       d="m 1620.8202,2344.271 c 0,10.6698 -1.0413,21.2368 -3.1225,31.7017 -2.0819,10.4648 -5.1644,20.6261 -9.2474,30.484 -4.0832,9.8576 -9.0887,19.2222 -15.0164,28.0941 -5.9281,8.8719 -12.6645,17.0804 -20.2091,24.625 -7.5447,7.5447 -15.753,14.2811 -24.6249,20.2091 -8.8716,5.9281 -18.2363,10.9338 -28.0941,15.0166 -9.8577,4.0829 -20.0189,7.1655 -30.4836,9.2472 -10.4649,2.0817 -21.0321,3.1223 -31.702,3.1223 -10.6699,0 -21.2373,-1.0412 -31.7023,-3.1223 -10.465,-2.0817 -20.6262,-5.1643 -30.484,-9.2472 -9.8577,-4.0828 -19.2224,-9.0885 -28.0941,-15.0166 -8.8716,-5.928 -17.0799,-12.6644 -24.6246,-20.2091 -7.5449,-7.5446 -14.2813,-15.7531 -20.2092,-24.625 -5.9278,-8.8719 -10.9335,-18.2365 -15.0165,-28.0941 -4.0831,-9.8579 -7.1655,-20.0192 -9.247,-30.484 -2.0815,-10.4649 -3.1223,-21.0319 -3.1223,-31.7017 0,-10.6697 1.0412,-21.2371 3.1223,-31.7024 2.0815,-10.4648 5.1639,-20.6265 9.247,-30.484 4.083,-9.8576 9.0887,-19.2223 15.0165,-28.0937 5.9279,-8.8719 12.6643,-17.08 20.2092,-24.6246 7.5447,-7.5448 15.7527,-14.2812 24.6245,-20.209 8.8718,-5.9279 18.2365,-10.9335 28.0942,-15.0168 9.8578,-4.083 20.019,-7.1655 30.484,-9.2471 10.465,-2.0815 21.0324,-3.1224 31.7023,-3.1224 10.6699,0 21.2371,1.0413 31.702,3.1225 10.4647,2.0815 20.6259,5.164 30.4836,9.247 9.8578,4.0833 19.2225,9.0888 28.0941,15.0166 8.8719,5.928 17.0802,12.6644 24.6249,20.2092 7.5446,7.5446 14.281,15.7527 20.2091,24.6246 5.9277,8.8714 10.9332,18.2361 15.0164,28.0937 4.083,9.8575 7.1655,20.0192 9.2474,30.484 2.0816,10.4653 3.1225,21.0327 3.1225,31.7024 z"
       style="fill:none;stroke:#000000;stroke-width:50;stroke-linecap:butt;stroke-linejoin:miter;stroke-miterlimit:10;stroke-dasharray:none;stroke-opacity:1"
       id="path860" /><path
       d="m 2233.3202,2344.271 c 0,10.6698 -1.0412,21.2368 -3.1225,31.7017 -2.0815,10.4648 -5.164,20.6261 -9.2472,30.484 -4.0833,9.8576 -9.0889,19.2222 -15.0168,28.0941 -5.9278,8.8719 -12.664,17.0804 -20.2087,24.625 -7.5449,7.5447 -15.7531,14.2811 -24.6248,20.2091 -8.8717,5.9281 -18.2363,10.9338 -28.0941,15.0166 -9.8577,4.0829 -20.019,7.1655 -30.4839,9.2472 -10.4648,2.0817 -21.0321,3.1223 -31.702,3.1223 -10.6699,0 -21.2374,-1.0412 -31.7022,-3.1223 -10.465,-2.0817 -20.6263,-5.1643 -30.484,-9.2472 -9.8578,-4.0828 -19.2225,-9.0885 -28.0942,-15.0166 -8.8716,-5.928 -17.0798,-12.6644 -24.6246,-20.2091 -7.5449,-7.5446 -14.2812,-15.7531 -20.2091,-24.625 -5.9279,-8.8719 -10.9335,-18.2365 -15.0165,-28.0941 -4.0831,-9.8579 -7.1655,-20.0192 -9.247,-30.484 -2.0818,-10.4649 -3.1226,-21.0319 -3.1224,-31.7017 -2e-4,-10.6697 1.04,-21.2371 3.1224,-31.7024 2.0815,-10.4648 5.1639,-20.6265 9.247,-30.484 4.083,-9.8576 9.0886,-19.2223 15.0165,-28.0937 5.9279,-8.8719 12.6642,-17.08 20.2091,-24.6246 7.5448,-7.5448 15.7529,-14.2812 24.6245,-20.209 8.8716,-5.9279 18.2364,-10.9335 28.0941,-15.0168 9.8578,-4.083 20.0192,-7.1655 30.484,-9.2471 10.465,-2.0815 21.0325,-3.1224 31.7024,-3.1224 10.6699,0 21.2372,1.0413 31.7019,3.1225 10.465,2.0815 20.6263,5.164 30.484,9.247 9.8578,4.0833 19.2224,9.0888 28.0941,15.0166 8.8717,5.928 17.0799,12.6644 24.6248,20.2092 7.5447,7.5446 14.2811,15.7527 20.209,24.6246 5.9279,8.8714 10.9332,18.2361 15.0165,28.0937 4.0832,9.8575 7.1657,20.0192 9.2472,30.484 2.0817,10.4653 3.1225,21.0327 3.1225,31.7024 z"
       style="fill:#008000;fill-opacity:1;fill-rule:nonzero;stroke:none;stroke-width:12.5"
       id="path862" /><path
       d="m 2233.3202,2344.271 c 0,10.6698 -1.0412,21.2368 -3.1225,31.7017 -2.0815,10.4648 -5.164,20.6261 -9.2472,30.484 -4.0833,9.8576 -9.0889,19.2222 -15.0168,28.0941 -5.9278,8.8719 -12.664,17.0804 -20.2087,24.625 -7.5449,7.5447 -15.7531,14.2811 -24.6248,20.2091 -8.8717,5.9281 -18.2363,10.9338 -28.0941,15.0166 -9.8577,4.0829 -20.019,7.1655 -30.4839,9.2472 -10.4648,2.0817 -21.0321,3.1223 -31.702,3.1223 -10.6699,0 -21.2374,-1.0412 -31.7022,-3.1223 -10.465,-2.0817 -20.6263,-5.1643 -30.484,-9.2472 -9.8578,-4.0828 -19.2225,-9.0885 -28.0942,-15.0166 -8.8716,-5.928 -17.0798,-12.6644 -24.6246,-20.2091 -7.5449,-7.5446 -14.2812,-15.7531 -20.2091,-24.625 -5.9279,-8.8719 -10.9335,-18.2365 -15.0165,-28.0941 -4.0831,-9.8579 -7.1655,-20.0192 -9.247,-30.484 -2.0818,-10.4649 -3.1226,-21.0319 -3.1224,-31.7017 -2e-4,-10.6697 1.04,-21.2371 3.1224,-31.7024 2.0815,-10.4648 5.1639,-20.6265 9.247,-30.484 4.083,-9.8576 9.0886,-19.2223 15.0165,-28.0937 5.9279,-8.8719 12.6642,-17.08 20.2091,-24.6246 7.5448,-7.5448 15.7529,-14.2812 24.6245,-20.209 8.8716,-5.9279 18.2364,-10.9335 28.0941,-15.0168 9.8578,-4.083 20.0192,-7.1655 30.484,-9.2471 10.465,-2.0815 21.0325,-3.1224 31.7024,-3.1224 10.6699,0 21.2372,1.0413 31.7019,3.1225 10.465,2.0815 20.6263,5.164 30.484,9.247 9.8578,4.0833 19.2224,9.0888 28.0941,15.0166 8.8717,5.928 17.0799,12.6644 24.6248,20.2092 7.5447,7.5446 14.2811,15.7527 20.209,24.6246 5.9279,8.8714 10.9332,18.2361 15.0165,28.0937 4.0832,9.8575 7.1657,20.0192 9.2472,30.484 2.0817,10.4653 3.1225,21.0327 3.1225,31.7024 z"
       style="fill:none;stroke:#000000;stroke-width:50;stroke-linecap:butt;stroke-linejoin:miter;stroke-miterlimit:10;stroke-dasharray:none;stroke-opacity:1"
       id="path864" /><path
       d="m 1620.8202,2956.7711 c 0,10.6697 -1.0413,21.2367 -3.1225,31.7016 -2.0819,10.4649 -5.1644,20.6261 -9.2474,30.484 -4.0832,9.8576 -9.0887,19.2223 -15.0164,28.0938 -5.9281,8.8718 -12.6645,17.08 -20.2091,24.625 -7.5447,7.5451 -15.753,14.2811 -24.6249,20.2087 -8.8716,5.9276 -18.2363,10.9334 -28.0941,15.0166 -9.8577,4.0833 -20.0189,7.1659 -30.4836,9.2475 -10.4649,2.0818 -21.0321,3.1224 -31.702,3.1228 -10.6699,-4e-4 -21.2373,-1.0413 -31.7023,-3.1228 -10.465,-2.0816 -20.6262,-5.1642 -30.484,-9.2475 -9.8577,-4.0832 -19.2224,-9.089 -28.0941,-15.0166 -8.8716,-5.9276 -17.0799,-12.6636 -24.6246,-20.2087 -7.5449,-7.545 -14.2813,-15.7532 -20.2092,-24.625 -5.9278,-8.8715 -10.9335,-18.2362 -15.0165,-28.0938 -4.0831,-9.8579 -7.1655,-20.0191 -9.247,-30.484 -2.0815,-10.4649 -3.1223,-21.0319 -3.1223,-31.7016 0,-10.6702 1.0412,-21.2377 3.1223,-31.7028 2.0815,-10.4649 5.1639,-20.6261 9.247,-30.4836 4.083,-9.858 9.0887,-19.2228 15.0165,-28.0945 5.9279,-8.8719 12.6643,-17.08 20.2092,-24.6243 7.5447,-7.5447 15.7527,-14.2811 24.6245,-20.2087 8.8718,-5.9281 18.2365,-10.9338 28.0942,-15.0166 9.8578,-4.0833 20.019,-7.1655 30.484,-9.2468 10.465,-2.0817 21.0324,-3.1227 31.7023,-3.1227 10.6699,0 21.2371,1.0412 31.702,3.1227 10.4647,2.0813 20.6259,5.1635 30.4836,9.2468 9.8578,4.0828 19.2225,9.0885 28.0941,15.0166 8.8719,5.9276 17.0802,12.664 24.6249,20.2087 7.5446,7.5443 14.281,15.7524 20.2091,24.6243 5.9277,8.8717 10.9332,18.2365 15.0164,28.0945 4.083,9.8575 7.1655,20.0187 9.2474,30.4836 2.0816,10.4651 3.1225,21.0326 3.1225,31.7028 z"
       style="fill:#0000ff;fill-opacity:1;fill-rule:nonzero;stroke:none;stroke-width:12.5"
       id="path866" /><path
       d="m 1620.8202,2956.7711 c 0,10.6697 -1.0413,21.2367 -3.1225,31.7016 -2.0819,10.4649 -5.1644,20.6261 -9.2474,30.484 -4.0832,9.8576 -9.0887,19.2223 -15.0164,28.0938 -5.9281,8.8718 -12.6645,17.08 -20.2091,24.625 -7.5447,7.5451 -15.753,14.2811 -24.6249,20.2087 -8.8716,5.9276 -18.2363,10.9334 -28.0941,15.0166 -9.8577,4.0833 -20.0189,7.1659 -30.4836,9.2475 -10.4649,2.0818 -21.0321,3.1224 -31.702,3.1228 -10.6699,-4e-4 -21.2373,-1.0413 -31.7023,-3.1228 -10.465,-2.0816 -20.6262,-5.1642 -30.484,-9.2475 -9.8577,-4.0832 -19.2224,-9.089 -28.0941,-15.0166 -8.8716,-5.9276 -17.0799,-12.6636 -24.6246,-20.2087 -7.5449,-7.545 -14.2813,-15.7532 -20.2092,-24.625 -5.9278,-8.8715 -10.9335,-18.2362 -15.0165,-28.0938 -4.0831,-9.8579 -7.1655,-20.0191 -9.247,-30.484 -2.0815,-10.4649 -3.1223,-21.0319 -3.1223,-31.7016 0,-10.6702 1.0412,-21.2377 3.1223,-31.7028 2.0815,-10.4649 5.1639,-20.6261 9.247,-30.4836 4.083,-9.858 9.0887,-19.2228 15.0165,-28.0945 5.9279,-8.8719 12.6643,-17.08 20.2092,-24.6243 7.5447,-7.5447 15.7527,-14.2811 24.6245,-20.2087 8.8718,-5.9281 18.2365,-10.9338 28.0942,-15.0166 9.8578,-4.0833 20.019,-7.1655 30.484,-9.2468 10.465,-2.0817 21.0324,-3.1227 31.7023,-3.1227 10.6699,0 21.2371,1.0412 31.702,3.1227 10.4647,2.0813 20.6259,5.1635 30.4836,9.2468 9.8578,4.0828 19.2225,9.0885 28.0941,15.0166 8.8719,5.9276 17.0802,12.664 24.6249,20.2087 7.5446,7.5443 14.281,15.7524 20.2091,24.6243 5.9277,8.8717 10.9332,18.2365 15.0164,28.0945 4.083,9.8575 7.1655,20.0187 9.2474,30.4836 2.0816,10.4651 3.1225,21.0326 3.1225,31.7028 z"
       style="fill:none;stroke:#000000;stroke-width:50;stroke-linecap:butt;stroke-linejoin:miter;stroke-miterlimit:10;stroke-dasharray:none;stroke-opacity:1"
       id="path868" /><path
       d="m 2233.3202,2956.7711 c 0,10.6697 -1.0412,21.2367 -3.1225,31.7016 -2.0815,10.4649 -5.164,20.6261 -9.2472,30.484 -4.0833,9.8576 -9.0889,19.2223 -15.0168,28.0938 -5.9278,8.8718 -12.664,17.08 -20.2087,24.625 -7.5449,7.5451 -15.7531,14.2811 -24.6248,20.2087 -8.8717,5.9276 -18.2363,10.9334 -28.0941,15.0166 -9.8577,4.0833 -20.019,7.1659 -30.4839,9.2475 -10.4648,2.0818 -21.0321,3.1224 -31.702,3.1228 -10.6699,-4e-4 -21.2374,-1.0413 -31.7022,-3.1228 -10.465,-2.0816 -20.6263,-5.1642 -30.484,-9.2475 -9.8578,-4.0832 -19.2225,-9.089 -28.0942,-15.0166 -8.8716,-5.9276 -17.0798,-12.6636 -24.6246,-20.2087 -7.5449,-7.545 -14.2812,-15.7532 -20.2091,-24.625 -5.9279,-8.8715 -10.9335,-18.2362 -15.0165,-28.0938 -4.0831,-9.8579 -7.1655,-20.0191 -9.247,-30.484 -2.0818,-10.4649 -3.1226,-21.0319 -3.1224,-31.7016 -2e-4,-10.6702 1.04,-21.2377 3.1224,-31.7028 2.0815,-10.4649 5.1639,-20.6261 9.247,-30.4836 4.083,-9.858 9.0886,-19.2228 15.0165,-28.0945 5.9279,-8.8719 12.6642,-17.08 20.2091,-24.6243 7.5448,-7.5447 15.7529,-14.2811 24.6245,-20.2087 8.8716,-5.9281 18.2364,-10.9338 28.0941,-15.0166 9.8578,-4.0833 20.0192,-7.1655 30.484,-9.2468 10.465,-2.0817 21.0325,-3.1227 31.7024,-3.1227 10.6699,0 21.2372,1.0412 31.7019,3.1227 10.465,2.0813 20.6263,5.1635 30.484,9.2468 9.8578,4.0828 19.2224,9.0885 28.0941,15.0166 8.8717,5.9276 17.0799,12.664 24.6248,20.2087 7.5447,7.5443 14.2811,15.7524 20.209,24.6243 5.9279,8.8717 10.9332,18.2365 15.0165,28.0945 4.0832,9.8575 7.1657,20.0187 9.2472,30.4836 2.0817,10.4651 3.1225,21.0326 3.1225,31.7028 z"
       style="fill:#800080;fill-opacity:1;fill-rule:nonzero;stroke:none;stroke-width:12.5"
       id="path870" /><path
       d="m 2233.3202,2956.7711 c 0,10.6697 -1.0412,21.2367 -3.1225,31.7016 -2.0815,10.4649 -5.164,20.6261 -9.2472,30.484 -4.0833,9.8576 -9.0889,19.2223 -15.0168,28.0938 -5.9278,8.8718 -12.664,17.08 -20.2087,24.625 -7.5449,7.5451 -15.7531,14.2811 -24.6248,20.2087 -8.8717,5.9276 -18.2363,10.9334 -28.0941,15.0166 -9.8577,4.0833 -20.019,7.1659 -30.4839,9.2475 -10.4648,2.0818 -21.0321,3.1224 -31.702,3.1228 -10.6699,-4e-4 -21.2374,-1.0413 -31.7022,-3.1228 -10.465,-2.0816 -20.6263,-5.1642 -30.484,-9.2475 -9.8578,-4.0832 -19.2225,-9.089 -28.0942,-15.0166 -8.8716,-5.9276 -17.0798,-12.6636 -24.6246,-20.2087 -7.5449,-7.545 -14.2812,-15.7532 -20.2091,-24.625 -5.9279,-8.8715 -10.9335,-18.2362 -15.0165,-28.0938 -4.0831,-9.8579 -7.1655,-20.0191 -9.247,-30.484 -2.0818,-10.4649 -3.1226,-21.0319 -3.1224,-31.7016 -2e-4,-10.6702 1.04,-21.2377 3.1224,-31.7028 2.0815,-10.4649 5.1639,-20.6261 9.247,-30.4836 4.083,-9.858 9.0886,-19.2228 15.0165,-28.0945 5.9279,-8.8719 12.6642,-17.08 20.2091,-24.6243 7.5448,-7.5447 15.7529,-14.2811 24.6245,-20.2087 8.8716,-5.9281 18.2364,-10.9338 28.0941,-15.0166 9.8578,-4.0833 20.0192,-7.1655 30.484,-9.2468 10.465,-2.0817 21.0325,-3.1227 31.7024,-3.1227 10.6699,0 21.2372,1.0412 31.7019,3.1227 10.465,2.0813 20.6263,5.1635 30.484,9.2468 9.8578,4.0828 19.2224,9.0885 28.0941,15.0166 8.8717,5.9276 17.0799,12.664 24.6248,20.2087 7.5447,7.5443 14.2811,15.7524 20.209,24.6243 5.9279,8.8717 10.9332,18.2365 15.0165,28.0945 4.0832,9.8575 7.1657,20.0187 9.2472,30.4836 2.0817,10.4651 3.1225,21.0326 3.1225,31.7028 z"
       style="fill:none;stroke:#000000;stroke-width:50;stroke-linecap:butt;stroke-linejoin:miter;stroke-miterlimit:10;stroke-dasharray:none;stroke-opacity:1"
       id="path872" /></g></svg>
