<?xml version="1.0" standalone="no"?>
<!DOCTYPE svg PUBLIC "-//W3C//DTD SVG 20010904//EN"
 "http://www.w3.org/TR/2001/REC-SVG-20010904/DTD/svg10.dtd">
<svg version="1.0" xmlns="http://www.w3.org/2000/svg"
 width="1248.000000pt" height="1248.000000pt" viewBox="0 0 1248.000000 1248.000000"
 preserveAspectRatio="xMidYMid meet">
<metadata>
Created by potrace 1.14, written by Peter Selinger 2001-2017
</metadata>
<g transform="translate(0.000000,1248.000000) scale(0.100000,-0.100000)"
fill="#000000" stroke="none">
<path d="M2716 12464 c-288 -52 -549 -270 -657 -548 -64 -164 -59 287 -59
-5676 0 -5963 -5 -5512 59 -5676 87 -224 275 -412 502 -503 163 -65 -95 -61
3679 -61 3763 0 3513 -4 3676 59 226 88 418 280 505 506 64 166 59 -284 59
5675 0 5959 5 5509 -59 5675 -87 226 -279 418 -505 506 -163 63 88 59 -3685
58 -2921 -1 -3448 -3 -3515 -15z m7009 -319 c211 -54 366 -209 420 -420 13
-52 15 -671 15 -5485 0 -4814 -2 -5433 -15 -5485 -41 -163 -150 -302 -288
-369 -146 -72 176 -66 -3617 -66 -3793 0 -3471 -6 -3617 66 -138 67 -247 206
-288 369 -13 52 -15 671 -15 5485 0 4814 2 5433 15 5485 41 163 150 302 288
369 143 70 -172 65 3612 65 3033 1 3438 -1 3490 -14z"/>
<path d="M4160 11395 c-8 -2 -49 -9 -90 -15 -421 -68 -794 -393 -928 -805 -45
-140 -57 -217 -57 -375 0 -158 12 -235 56 -373 131 -404 475 -712 899 -803
118 -26 362 -26 480 0 473 102 834 464 936 936 14 62 18 127 18 240 0 171 -15
266 -65 403 -144 396 -473 682 -891 773 -66 14 -321 28 -358 19z"/>
<path d="M8080 11395 c-8 -2 -49 -9 -90 -15 -349 -57 -676 -294 -846 -614
-102 -191 -138 -342 -138 -566 0 -113 4 -178 18 -240 104 -481 475 -845 961
-941 103 -21 349 -18 455 5 423 91 768 399 899 803 44 138 56 215 56 373 0 83
-6 175 -14 215 -96 488 -457 855 -943 961 -66 14 -321 28 -358 19z m330 -346
c389 -92 663 -444 663 -849 0 -288 -134 -548 -368 -716 -288 -207 -700 -211
-995 -11 -66 45 -176 154 -225 222 -212 299 -213 714 -1 1010 212 295 572 429
926 344z"/>
<path d="M4160 7395 c-8 -2 -49 -9 -90 -15 -421 -68 -794 -393 -928 -805 -45
-140 -57 -217 -57 -375 0 -158 12 -235 56 -373 131 -404 475 -712 899 -803
118 -26 362 -26 480 0 473 102 834 464 936 936 14 62 18 127 18 240 0 171 -15
266 -65 403 -144 396 -473 682 -891 773 -66 14 -321 28 -358 19z m335 -343
c226 -62 412 -197 528 -383 354 -568 -24 -1303 -692 -1346 -363 -24 -722 200
-860 536 -52 125 -65 194 -65 341 0 147 13 216 65 341 104 253 339 452 606
513 106 24 111 25 233 21 71 -2 142 -11 185 -23z"/>
<path d="M8080 7395 c-8 -2 -49 -9 -90 -15 -349 -57 -676 -294 -846 -614 -102
-191 -138 -342 -138 -566 0 -113 4 -178 18 -240 104 -481 475 -845 961 -941
103 -21 349 -18 455 5 423 91 768 399 899 803 44 138 56 215 56 373 0 83 -6
175 -14 215 -96 488 -457 855 -943 961 -66 14 -321 28 -358 19z"/>
<path d="M4145 3474 c-170 -26 -296 -67 -431 -138 -269 -143 -479 -393 -573
-683 -44 -138 -56 -215 -56 -373 0 -158 12 -235 56 -373 134 -413 487 -722
924 -808 91 -18 339 -18 430 0 486 96 857 459 961 941 14 62 18 127 18 240 0
113 -4 178 -18 240 -100 466 -454 826 -916 931 -83 19 -327 33 -395 23z"/>
<path d="M8080 3475 c-8 -2 -49 -9 -90 -15 -349 -57 -676 -294 -846 -614 -102
-191 -138 -342 -138 -566 0 -113 4 -178 18 -240 104 -481 475 -845 961 -941
91 -18 339 -18 430 0 495 98 868 471 966 966 8 40 14 132 14 215 0 158 -12
235 -56 373 -129 398 -466 704 -879 798 -78 18 -338 35 -380 24z"/>
</g>
</svg>
